<svg xmlns="http://www.w3.org/2000/svg" viewBox="0 0 64 64">
  <defs>
    <linearGradient id="bg" x1="10" y1="8" x2="56" y2="58" gradientUnits="userSpaceOnUse">
      <stop stop-color="#38bdf8"/>
      <stop offset=".52" stop-color="#a78bfa"/>
      <stop offset="1" stop-color="#fb7185"/>
    </linearGradient>
  </defs>
  <rect width="64" height="64" rx="18" fill="url(#bg)"/>
  <path d="M15 47c8 6 26 6 34 0" fill="none" stroke="#fff7ed" stroke-width="5" stroke-linecap="round"/>
  <circle cx="22" cy="25" r="5" fill="#fff7ed"/>
  <circle cx="42" cy="25" r="5" fill="#fff7ed"/>
  <circle cx="22" cy="25" r="2" fill="#4c1d95"/>
  <circle cx="42" cy="25" r="2" fill="#4c1d95"/>
  <path d="M30 18h4v11h11v4H34v11h-4V33H19v-4h11z" fill="#facc15" stroke="#fff7ed" stroke-width="2" stroke-linejoin="round"/>
  <path d="M49 10l2 5 5 1-4 4 1 5-4-3-5 3 2-5-4-4 5-1z" fill="#fff7ed" opacity=".95"/>
</svg>
